<?xml version="1.0" encoding="utf-8" standalone="no"?>
<!DOCTYPE svg PUBLIC "-//W3C//DTD SVG 1.1//EN"
  "http://www.w3.org/Graphics/SVG/1.1/DTD/svg11.dtd">
<svg xmlns:xlink="http://www.w3.org/1999/xlink" width="341.976266pt" height="158.249849pt" viewBox="0 0 341.976266 158.249849" xmlns="http://www.w3.org/2000/svg" version="1.1">
 <metadata>
  <rdf:RDF xmlns:dc="http://purl.org/dc/elements/1.1/" xmlns:cc="http://creativecommons.org/ns#" xmlns:rdf="http://www.w3.org/1999/02/22-rdf-syntax-ns#">
   <cc:Work>
    <dc:type rdf:resource="http://purl.org/dc/dcmitype/StillImage"/>
    <dc:date>2026-06-02T20:33:55.633630</dc:date>
    <dc:format>image/svg+xml</dc:format>
    <dc:creator>
     <cc:Agent>
      <dc:title>Matplotlib v3.10.3, https://matplotlib.org/</dc:title>
     </cc:Agent>
    </dc:creator>
   </cc:Work>
  </rdf:RDF>
 </metadata>
 <defs>
  <style type="text/css">*{stroke-linejoin: round; stroke-linecap: butt}</style>
 </defs>
 <g id="figure_1">
  <g id="patch_1">
   <path d="M 0 158.249849 
L 341.976266 158.249849 
L 341.976266 0 
L 0 0 
z
" style="fill: #ffffff"/>
  </g>
  <g id="axes_1">
   <g id="patch_2">
    <path d="M 76.914219 132.40063 
L 340.536266 132.40063 
L 340.536266 1.44 
L 76.914219 1.44 
z
" style="fill: #ffffff"/>
   </g>
   <g id="matplotlib.axis_1">
    <g id="xtick_1">
     <g id="line2d_1">
      <defs>
       <path id="m6b113f66a9" d="M 0 0 
L 0 3 
" style="stroke: #333333; stroke-width: 0.75"/>
      </defs>
      <g>
       <use xlink:href="#m6b113f66a9" x="76.914219" y="132.40063" style="fill: #333333; stroke: #333333; stroke-width: 0.75"/>
      </g>
     </g>
     <g id="text_1">
      <text style="font-size: 7px; font-family: 'Arial', 'DejaVu Sans', sans-serif; text-anchor: middle; fill: #333333" x="76.914219" y="143.911099" transform="rotate(-0 76.914219 143.911099)">0</text>
     </g>
    </g>
    <g id="xtick_2">
     <g id="line2d_2">
      <g>
       <use xlink:href="#m6b113f66a9" x="114.574511" y="132.40063" style="fill: #333333; stroke: #333333; stroke-width: 0.75"/>
      </g>
     </g>
     <g id="text_2">
      <text style="font-size: 7px; font-family: 'Arial', 'DejaVu Sans', sans-serif; text-anchor: middle; fill: #333333" x="114.574511" y="143.911099" transform="rotate(-0 114.574511 143.911099)">20</text>
     </g>
    </g>
    <g id="xtick_3">
     <g id="line2d_3">
      <g>
       <use xlink:href="#m6b113f66a9" x="152.234804" y="132.40063" style="fill: #333333; stroke: #333333; stroke-width: 0.75"/>
      </g>
     </g>
     <g id="text_3">
      <text style="font-size: 7px; font-family: 'Arial', 'DejaVu Sans', sans-serif; text-anchor: middle; fill: #333333" x="152.234804" y="143.911099" transform="rotate(-0 152.234804 143.911099)">40</text>
     </g>
    </g>
    <g id="xtick_4">
     <g id="line2d_4">
      <g>
       <use xlink:href="#m6b113f66a9" x="189.895096" y="132.40063" style="fill: #333333; stroke: #333333; stroke-width: 0.75"/>
      </g>
     </g>
     <g id="text_4">
      <text style="font-size: 7px; font-family: 'Arial', 'DejaVu Sans', sans-serif; text-anchor: middle; fill: #333333" x="189.895096" y="143.911099" transform="rotate(-0 189.895096 143.911099)">60</text>
     </g>
    </g>
    <g id="xtick_5">
     <g id="line2d_5">
      <g>
       <use xlink:href="#m6b113f66a9" x="227.555389" y="132.40063" style="fill: #333333; stroke: #333333; stroke-width: 0.75"/>
      </g>
     </g>
     <g id="text_5">
      <text style="font-size: 7px; font-family: 'Arial', 'DejaVu Sans', sans-serif; text-anchor: middle; fill: #333333" x="227.555389" y="143.911099" transform="rotate(-0 227.555389 143.911099)">80</text>
     </g>
    </g>
    <g id="xtick_6">
     <g id="line2d_6">
      <g>
       <use xlink:href="#m6b113f66a9" x="265.215681" y="132.40063" style="fill: #333333; stroke: #333333; stroke-width: 0.75"/>
      </g>
     </g>
     <g id="text_6">
      <text style="font-size: 7px; font-family: 'Arial', 'DejaVu Sans', sans-serif; text-anchor: middle; fill: #333333" x="265.215681" y="143.911099" transform="rotate(-0 265.215681 143.911099)">100</text>
     </g>
    </g>
    <g id="text_7">
     <text style="font-size: 8px; font-family: 'Arial', 'DejaVu Sans', sans-serif; text-anchor: middle" x="208.725242" y="155.126099" transform="rotate(-0 208.725242 155.126099)">Percentage (Wilson 95% CI)</text>
    </g>
   </g>
   <g id="matplotlib.axis_2">
    <g id="ytick_1">
     <g id="line2d_7"/>
     <g id="text_8">
      <text style="font-size: 7px; font-family: 'Arial', 'DejaVu Sans', sans-serif; text-anchor: end; fill: #333333" x="73.414219" y="128.997952" transform="rotate(-0 73.414219 128.997952)">Other (of detections)</text>
     </g>
    </g>
    <g id="ytick_2">
     <g id="line2d_8"/>
     <g id="text_9">
      <text style="font-size: 7px; font-family: 'Arial', 'DejaVu Sans', sans-serif; text-anchor: end; fill: #333333" x="73.414219" y="99.231985" transform="rotate(-0 73.414219 99.231985)">Parasite (of detections)</text>
     </g>
    </g>
    <g id="ytick_3">
     <g id="line2d_9"/>
     <g id="text_10">
      <text style="font-size: 7px; font-family: 'Arial', 'DejaVu Sans', sans-serif; text-anchor: end; fill: #333333" x="73.414219" y="69.468206" transform="rotate(-0 73.414219 69.468206)">Virus (of detections)</text>
     </g>
    </g>
    <g id="ytick_4">
     <g id="line2d_10"/>
     <g id="text_11">
      <text style="font-size: 7px; font-family: 'Arial', 'DejaVu Sans', sans-serif; text-anchor: end; fill: #333333" x="73.414219" y="39.704426" transform="rotate(-0 73.414219 39.704426)">Bacteria (of detections)</text>
     </g>
    </g>
    <g id="ytick_5">
     <g id="line2d_11"/>
     <g id="text_12">
      <text style="font-size: 7px; font-family: 'Arial', 'DejaVu Sans', sans-serif; text-anchor: end; fill: #333333" x="73.414219" y="9.940647" transform="rotate(-0 73.414219 9.940647)">Any positive GI-PCR</text>
     </g>
    </g>
   </g>
   <g id="line2d_12">
    <path d="M 144.061476 7.392756 
L 182.015717 7.392756 
" clip-path="url(#p3690a53750)" style="fill: none; stroke: #333333; stroke-width: 1.6; stroke-linecap: square"/>
   </g>
   <g id="line2d_13">
    <path d="M 147.041859 37.156535 
L 198.79173 37.156535 
" clip-path="url(#p3690a53750)" style="fill: none; stroke: #0072b2; stroke-width: 1.6; stroke-linecap: square"/>
   </g>
   <g id="line2d_14">
    <path d="M 112.034483 66.920315 
L 159.72533 66.920315 
" clip-path="url(#p3690a53750)" style="fill: none; stroke: #d55e00; stroke-width: 1.6; stroke-linecap: square"/>
   </g>
   <g id="line2d_15">
    <path d="M 93.647173 96.684094 
L 133.668376 96.684094 
" clip-path="url(#p3690a53750)" style="fill: none; stroke: #009e73; stroke-width: 1.6; stroke-linecap: square"/>
   </g>
   <g id="line2d_16">
    <path d="M 77.6233 126.447874 
L 97.840606 126.447874 
" clip-path="url(#p3690a53750)" style="fill: none; stroke: #999999; stroke-width: 1.6; stroke-linecap: square"/>
   </g>
   <g id="line2d_17">
    <path d="M 76.914219 22.274646 
L 340.536266 22.274646 
" clip-path="url(#p3690a53750)" style="fill: none; stroke: #dddddd; stroke-width: 0.6; stroke-linecap: square"/>
   </g>
   <g id="patch_3">
    <path d="M 76.914219 132.40063 
L 76.914219 1.44 
" style="fill: none; stroke: #333333; stroke-width: 0.75; stroke-linejoin: miter; stroke-linecap: square"/>
   </g>
   <g id="patch_4">
    <path d="M 76.914219 132.40063 
L 340.536266 132.40063 
" style="fill: none; stroke: #333333; stroke-width: 0.75; stroke-linejoin: miter; stroke-linecap: square"/>
   </g>
   <g id="line2d_18">
    <defs>
     <path id="m1dcd041520" d="M 0 3 
C 0.795609 3 1.55874 2.683901 2.12132 2.12132 
C 2.683901 1.55874 3 0.795609 3 0 
C 3 -0.795609 2.683901 -1.55874 2.12132 -2.12132 
C 1.55874 -2.683901 0.795609 -3 0 -3 
C -0.795609 -3 -1.55874 -2.683901 -2.12132 -2.12132 
C -2.683901 -1.55874 -3 -0.795609 -3 0 
C -3 0.795609 -2.683901 1.55874 -2.12132 2.12132 
C -1.55874 2.683901 -0.795609 3 0 3 
z
" style="stroke: #ffffff; stroke-width: 0.6"/>
    </defs>
    <g clip-path="url(#p3690a53750)">
     <use xlink:href="#m1dcd041520" x="162.695996" y="7.392756" style="fill: #333333; stroke: #ffffff; stroke-width: 0.6"/>
    </g>
   </g>
   <g id="text_13">
    <text style="font-size: 6.5px; font-family: 'Arial', 'DejaVu Sans', sans-serif; text-anchor: start" x="268.98171" y="9.074631" transform="rotate(-0 268.98171 9.074631)">46% (36–56)  41/90</text>
   </g>
   <g id="line2d_19">
    <defs>
     <path id="m3d69fee07d" d="M 0 3 
C 0.795609 3 1.55874 2.683901 2.12132 2.12132 
C 2.683901 1.55874 3 0.795609 3 0 
C 3 -0.795609 2.683901 -1.55874 2.12132 -2.12132 
C 1.55874 -2.683901 0.795609 -3 0 -3 
C -0.795609 -3 -1.55874 -2.683901 -2.12132 -2.12132 
C -2.683901 -1.55874 -3 -0.795609 -3 0 
C -3 0.795609 -2.683901 1.55874 -2.12132 2.12132 
C -1.55874 2.683901 -0.795609 3 0 3 
z
" style="stroke: #ffffff; stroke-width: 0.6"/>
    </defs>
    <g clip-path="url(#p3690a53750)">
     <use xlink:href="#m3d69fee07d" x="173.068157" y="37.156535" style="fill: #0072b2; stroke: #ffffff; stroke-width: 0.6"/>
    </g>
   </g>
   <g id="text_14">
    <text style="font-size: 6.5px; font-family: 'Arial', 'DejaVu Sans', sans-serif; text-anchor: start" x="268.98171" y="38.83841" transform="rotate(-0 268.98171 38.83841)">51% (37–65)  24/47</text>
   </g>
   <g id="line2d_20">
    <defs>
     <path id="m2fa204a8a3" d="M 0 3 
C 0.795609 3 1.55874 2.683901 2.12132 2.12132 
C 2.683901 1.55874 3 0.795609 3 0 
C 3 -0.795609 2.683901 -1.55874 2.12132 -2.12132 
C 1.55874 -2.683901 0.795609 -3 0 -3 
C -0.795609 -3 -1.55874 -2.683901 -2.12132 -2.12132 
C -2.683901 -1.55874 -3 -0.795609 -3 0 
C -3 0.795609 -2.683901 1.55874 -2.12132 2.12132 
C -1.55874 2.683901 -0.795609 3 0 3 
z
" style="stroke: #ffffff; stroke-width: 0.6"/>
    </defs>
    <g clip-path="url(#p3690a53750)">
     <use xlink:href="#m2fa204a8a3" x="133.004016" y="66.920315" style="fill: #d55e00; stroke: #ffffff; stroke-width: 0.6"/>
    </g>
   </g>
   <g id="text_15">
    <text style="font-size: 6.5px; font-family: 'Arial', 'DejaVu Sans', sans-serif; text-anchor: start" x="268.98171" y="68.60219" transform="rotate(-0 268.98171 68.60219)">30% (19–44)  14/47</text>
   </g>
   <g id="line2d_21">
    <defs>
     <path id="mf87f0500c3" d="M 0 3 
C 0.795609 3 1.55874 2.683901 2.12132 2.12132 
C 2.683901 1.55874 3 0.795609 3 0 
C 3 -0.795609 2.683901 -1.55874 2.12132 -2.12132 
C 1.55874 -2.683901 0.795609 -3 0 -3 
C -0.795609 -3 -1.55874 -2.683901 -2.12132 -2.12132 
C -2.683901 -1.55874 -3 -0.795609 -3 0 
C -3 0.795609 -2.683901 1.55874 -2.12132 2.12132 
C -1.55874 2.683901 -0.795609 3 0 3 
z
" style="stroke: #ffffff; stroke-width: 0.6"/>
    </defs>
    <g clip-path="url(#p3690a53750)">
     <use xlink:href="#mf87f0500c3" x="108.965531" y="96.684094" style="fill: #009e73; stroke: #ffffff; stroke-width: 0.6"/>
    </g>
   </g>
   <g id="text_16">
    <text style="font-size: 6.5px; font-family: 'Arial', 'DejaVu Sans', sans-serif; text-anchor: start" x="268.98171" y="98.365969" transform="rotate(-0 268.98171 98.365969)">17% (9–30)  8/47</text>
   </g>
   <g id="line2d_22">
    <defs>
     <path id="mb9c083cc18" d="M 0 3 
C 0.795609 3 1.55874 2.683901 2.12132 2.12132 
C 2.683901 1.55874 3 0.795609 3 0 
C 3 -0.795609 2.683901 -1.55874 2.12132 -2.12132 
C 1.55874 -2.683901 0.795609 -3 0 -3 
C -0.795609 -3 -1.55874 -2.683901 -2.12132 -2.12132 
C -2.683901 -1.55874 -3 -0.795609 -3 0 
C -3 0.795609 -2.683901 1.55874 -2.12132 2.12132 
C -1.55874 2.683901 -0.795609 3 0 3 
z
" style="stroke: #ffffff; stroke-width: 0.6"/>
    </defs>
    <g clip-path="url(#p3690a53750)">
     <use xlink:href="#mb9c083cc18" x="80.920633" y="126.447874" style="fill: #999999; stroke: #ffffff; stroke-width: 0.6"/>
    </g>
   </g>
   <g id="text_17">
    <text style="font-size: 6.5px; font-family: 'Arial', 'DejaVu Sans', sans-serif; text-anchor: start" x="268.98171" y="128.129749" transform="rotate(-0 268.98171 128.129749)">2% (0–11)  1/47</text>
   </g>
  </g>
 </g>
 <defs>
  <clipPath id="p3690a53750">
   <rect x="76.914219" y="1.44" width="263.622047" height="130.96063"/>
  </clipPath>
 </defs>
</svg>
