<?xml version="1.0" encoding="utf-8" standalone="no"?>
<!DOCTYPE svg PUBLIC "-//W3C//DTD SVG 1.1//EN"
  "http://www.w3.org/Graphics/SVG/1.1/DTD/svg11.dtd">
<svg xmlns:xlink="http://www.w3.org/1999/xlink" width="503.705758pt" height="203.422585pt" viewBox="0 0 503.705758 203.422585" xmlns="http://www.w3.org/2000/svg" version="1.1">
 <metadata>
  <rdf:RDF xmlns:dc="http://purl.org/dc/elements/1.1/" xmlns:cc="http://creativecommons.org/ns#" xmlns:rdf="http://www.w3.org/1999/02/22-rdf-syntax-ns#">
   <cc:Work>
    <dc:type rdf:resource="http://purl.org/dc/dcmitype/StillImage"/>
    <dc:date>2026-06-02T20:36:19.242018</dc:date>
    <dc:format>image/svg+xml</dc:format>
    <dc:creator>
     <cc:Agent>
      <dc:title>Matplotlib v3.10.3, https://matplotlib.org/</dc:title>
     </cc:Agent>
    </dc:creator>
   </cc:Work>
  </rdf:RDF>
 </metadata>
 <defs>
  <style type="text/css">*{stroke-linejoin: round; stroke-linecap: butt}</style>
 </defs>
 <g id="figure_1">
  <g id="patch_1">
   <path d="M 0 203.422585 
L 503.705758 203.422585 
L 503.705758 0 
L 0 0 
z
" style="fill: #ffffff"/>
  </g>
  <g id="axes_1">
   <g id="patch_2">
    <path d="M 55.898906 177.573366 
L 444.138828 177.573366 
L 444.138828 1.44 
L 55.898906 1.44 
z
" style="fill: #ffffff"/>
   </g>
   <g id="matplotlib.axis_1">
    <g id="xtick_1">
     <g id="line2d_1">
      <path d="M 102.30177 177.573366 
L 102.30177 1.44 
" clip-path="url(#p48b3577acd)" style="fill: none; stroke: #eeeeee; stroke-width: 0.5; stroke-linecap: square"/>
     </g>
     <g id="line2d_2">
      <defs>
       <path id="ma77401287d" d="M 0 0 
L 0 3 
" style="stroke: #333333; stroke-width: 0.75"/>
      </defs>
      <g>
       <use xlink:href="#ma77401287d" x="102.30177" y="177.573366" style="fill: #333333; stroke: #333333; stroke-width: 0.75"/>
      </g>
     </g>
     <g id="text_1">
      <text style="font-size: 7px; font-family: 'Arial', 'DejaVu Sans', sans-serif; text-anchor: middle; fill: #333333" x="102.30177" y="189.083835" transform="rotate(-0 102.30177 189.083835)">250</text>
     </g>
    </g>
    <g id="xtick_2">
     <g id="line2d_3">
      <path d="M 151.540802 177.573366 
L 151.540802 1.44 
" clip-path="url(#p48b3577acd)" style="fill: none; stroke: #eeeeee; stroke-width: 0.5; stroke-linecap: square"/>
     </g>
     <g id="line2d_4">
      <g>
       <use xlink:href="#ma77401287d" x="151.540802" y="177.573366" style="fill: #333333; stroke: #333333; stroke-width: 0.75"/>
      </g>
     </g>
     <g id="text_2">
      <text style="font-size: 7px; font-family: 'Arial', 'DejaVu Sans', sans-serif; text-anchor: middle; fill: #333333" x="151.540802" y="189.083835" transform="rotate(-0 151.540802 189.083835)">500</text>
     </g>
    </g>
    <g id="xtick_3">
     <g id="line2d_5">
      <path d="M 200.779835 177.573366 
L 200.779835 1.44 
" clip-path="url(#p48b3577acd)" style="fill: none; stroke: #eeeeee; stroke-width: 0.5; stroke-linecap: square"/>
     </g>
     <g id="line2d_6">
      <g>
       <use xlink:href="#ma77401287d" x="200.779835" y="177.573366" style="fill: #333333; stroke: #333333; stroke-width: 0.75"/>
      </g>
     </g>
     <g id="text_3">
      <text style="font-size: 7px; font-family: 'Arial', 'DejaVu Sans', sans-serif; text-anchor: middle; fill: #333333" x="200.779835" y="189.083835" transform="rotate(-0 200.779835 189.083835)">750</text>
     </g>
    </g>
    <g id="xtick_4">
     <g id="line2d_7">
      <path d="M 250.018867 177.573366 
L 250.018867 1.44 
" clip-path="url(#p48b3577acd)" style="fill: none; stroke: #eeeeee; stroke-width: 0.5; stroke-linecap: square"/>
     </g>
     <g id="line2d_8">
      <g>
       <use xlink:href="#ma77401287d" x="250.018867" y="177.573366" style="fill: #333333; stroke: #333333; stroke-width: 0.75"/>
      </g>
     </g>
     <g id="text_4">
      <text style="font-size: 7px; font-family: 'Arial', 'DejaVu Sans', sans-serif; text-anchor: middle; fill: #333333" x="250.018867" y="189.083835" transform="rotate(-0 250.018867 189.083835)">1000</text>
     </g>
    </g>
    <g id="xtick_5">
     <g id="line2d_9">
      <path d="M 299.257899 177.573366 
L 299.257899 1.44 
" clip-path="url(#p48b3577acd)" style="fill: none; stroke: #eeeeee; stroke-width: 0.5; stroke-linecap: square"/>
     </g>
     <g id="line2d_10">
      <g>
       <use xlink:href="#ma77401287d" x="299.257899" y="177.573366" style="fill: #333333; stroke: #333333; stroke-width: 0.75"/>
      </g>
     </g>
     <g id="text_5">
      <text style="font-size: 7px; font-family: 'Arial', 'DejaVu Sans', sans-serif; text-anchor: middle; fill: #333333" x="299.257899" y="189.083835" transform="rotate(-0 299.257899 189.083835)">1250</text>
     </g>
    </g>
    <g id="xtick_6">
     <g id="line2d_11">
      <path d="M 348.496931 177.573366 
L 348.496931 1.44 
" clip-path="url(#p48b3577acd)" style="fill: none; stroke: #eeeeee; stroke-width: 0.5; stroke-linecap: square"/>
     </g>
     <g id="line2d_12">
      <g>
       <use xlink:href="#ma77401287d" x="348.496931" y="177.573366" style="fill: #333333; stroke: #333333; stroke-width: 0.75"/>
      </g>
     </g>
     <g id="text_6">
      <text style="font-size: 7px; font-family: 'Arial', 'DejaVu Sans', sans-serif; text-anchor: middle; fill: #333333" x="348.496931" y="189.083835" transform="rotate(-0 348.496931 189.083835)">1500</text>
     </g>
    </g>
    <g id="xtick_7">
     <g id="line2d_13">
      <path d="M 397.735964 177.573366 
L 397.735964 1.44 
" clip-path="url(#p48b3577acd)" style="fill: none; stroke: #eeeeee; stroke-width: 0.5; stroke-linecap: square"/>
     </g>
     <g id="line2d_14">
      <g>
       <use xlink:href="#ma77401287d" x="397.735964" y="177.573366" style="fill: #333333; stroke: #333333; stroke-width: 0.75"/>
      </g>
     </g>
     <g id="text_7">
      <text style="font-size: 7px; font-family: 'Arial', 'DejaVu Sans', sans-serif; text-anchor: middle; fill: #333333" x="397.735964" y="189.083835" transform="rotate(-0 397.735964 189.083835)">1750</text>
     </g>
    </g>
    <g id="text_8">
     <text style="font-size: 8px; font-family: 'Arial', 'DejaVu Sans', sans-serif; text-anchor: middle" x="250.018867" y="200.298835" transform="rotate(-0 250.018867 200.298835)">Days after HSCT</text>
    </g>
   </g>
   <g id="matplotlib.axis_2">
    <g id="ytick_1">
     <g id="line2d_15"/>
     <g id="text_9">
      <text style="font-style: italic; font-size: 7px; font-family: 'Arial', 'DejaVu Sans', sans-serif; text-anchor: end; fill: #0072b2" x="52.398906" y="13.38095" transform="rotate(-0 52.398906 13.38095)">E. coli</text>
     </g>
    </g>
    <g id="ytick_2">
     <g id="line2d_16"/>
     <g id="text_10">
      <text style="font-style: italic; font-size: 7px; font-family: 'Arial', 'DejaVu Sans', sans-serif; text-anchor: end; fill: #0072b2" x="52.398906" y="29.107144" transform="rotate(-0 52.398906 29.107144)">C. difficile</text>
     </g>
    </g>
    <g id="ytick_3">
     <g id="line2d_17"/>
     <g id="text_11">
      <text style="font-style: italic; font-size: 7px; font-family: 'Arial', 'DejaVu Sans', sans-serif; text-anchor: end; fill: #0072b2" x="52.398906" y="44.833337" transform="rotate(-0 52.398906 44.833337)">Yersinia</text>
     </g>
    </g>
    <g id="ytick_4">
     <g id="line2d_18"/>
     <g id="text_12">
      <text style="font-style: italic; font-size: 7px; font-family: 'Arial', 'DejaVu Sans', sans-serif; text-anchor: end; fill: #0072b2" x="52.398906" y="60.559531" transform="rotate(-0 52.398906 60.559531)">Salmonella</text>
     </g>
    </g>
    <g id="ytick_5">
     <g id="line2d_19"/>
     <g id="text_13">
      <text style="font-style: italic; font-size: 7px; font-family: 'Arial', 'DejaVu Sans', sans-serif; text-anchor: end; fill: #d55e00" x="52.398906" y="76.285724" transform="rotate(-0 52.398906 76.285724)">Norovirus</text>
     </g>
    </g>
    <g id="ytick_6">
     <g id="line2d_20"/>
     <g id="text_14">
      <text style="font-style: italic; font-size: 7px; font-family: 'Arial', 'DejaVu Sans', sans-serif; text-anchor: end; fill: #d55e00" x="52.398906" y="92.011917" transform="rotate(-0 52.398906 92.011917)">Adenovirus</text>
     </g>
    </g>
    <g id="ytick_7">
     <g id="line2d_21"/>
     <g id="text_15">
      <text style="font-style: italic; font-size: 7px; font-family: 'Arial', 'DejaVu Sans', sans-serif; text-anchor: end; fill: #d55e00" x="52.398906" y="107.738111" transform="rotate(-0 52.398906 107.738111)">Rotavirus</text>
     </g>
    </g>
    <g id="ytick_8">
     <g id="line2d_22"/>
     <g id="text_16">
      <text style="font-style: italic; font-size: 7px; font-family: 'Arial', 'DejaVu Sans', sans-serif; text-anchor: end; fill: #d55e00" x="52.398906" y="123.506961" transform="rotate(-0 52.398906 123.506961)">Sapovirus</text>
     </g>
    </g>
    <g id="ytick_9">
     <g id="line2d_23"/>
     <g id="text_17">
      <text style="font-style: italic; font-size: 7px; font-family: 'Arial', 'DejaVu Sans', sans-serif; text-anchor: end; fill: #009e73" x="52.398906" y="139.233154" transform="rotate(-0 52.398906 139.233154)">Cryptosporidium</text>
     </g>
    </g>
    <g id="ytick_10">
     <g id="line2d_24"/>
     <g id="text_18">
      <text style="font-style: italic; font-size: 7px; font-family: 'Arial', 'DejaVu Sans', sans-serif; text-anchor: end; fill: #009e73" x="52.398906" y="154.916691" transform="rotate(-0 52.398906 154.916691)">Giardia</text>
     </g>
    </g>
    <g id="ytick_11">
     <g id="line2d_25"/>
     <g id="text_19">
      <text style="font-style: italic; font-size: 7px; font-family: 'Arial', 'DejaVu Sans', sans-serif; text-anchor: end; fill: #999999" x="52.398906" y="170.642884" transform="rotate(-0 52.398906 170.642884)">Other</text>
     </g>
    </g>
   </g>
   <g id="patch_3">
    <path d="M 55.898906 177.573366 
L 55.898906 1.44 
" style="fill: none; stroke: #333333; stroke-width: 0.75; stroke-linejoin: miter; stroke-linecap: square"/>
   </g>
   <g id="patch_4">
    <path d="M 55.898906 177.573366 
L 444.138828 177.573366 
" style="fill: none; stroke: #333333; stroke-width: 0.75; stroke-linejoin: miter; stroke-linecap: square"/>
   </g>
   <g id="PathCollection_1">
    <defs>
     <path id="mb81516eb76" d="M 0 2.12132 
C 0.562581 2.12132 1.102195 1.897805 1.5 1.5 
C 1.897805 1.102195 2.12132 0.562581 2.12132 0 
C 2.12132 -0.562581 1.897805 -1.102195 1.5 -1.5 
C 1.102195 -1.897805 0.562581 -2.12132 0 -2.12132 
C -0.562581 -2.12132 -1.102195 -1.897805 -1.5 -1.5 
C -1.897805 -1.102195 -2.12132 -0.562581 -2.12132 0 
C -2.12132 0.562581 -1.897805 1.102195 -1.5 1.5 
C -1.102195 1.897805 -0.562581 2.12132 0 2.12132 
z
" style="stroke: #ffffff; stroke-opacity: 0.95; stroke-width: 0.4"/>
    </defs>
    <g clip-path="url(#p48b3577acd)">
     <use xlink:href="#mb81516eb76" x="73.546175" y="11.583935" style="fill: #0072b2; fill-opacity: 0.95; stroke: #ffffff; stroke-opacity: 0.95; stroke-width: 0.4"/>
     <use xlink:href="#mb81516eb76" x="75.515737" y="13.124514" style="fill: #0072b2; fill-opacity: 0.95; stroke: #ffffff; stroke-opacity: 0.95; stroke-width: 0.4"/>
     <use xlink:href="#mb81516eb76" x="76.303561" y="12.436491" style="fill: #0072b2; fill-opacity: 0.95; stroke: #ffffff; stroke-opacity: 0.95; stroke-width: 0.4"/>
     <use xlink:href="#mb81516eb76" x="100.726121" y="9.319996" style="fill: #0072b2; fill-opacity: 0.95; stroke: #ffffff; stroke-opacity: 0.95; stroke-width: 0.4"/>
     <use xlink:href="#mb81516eb76" x="100.726121" y="9.744372" style="fill: #0072b2; fill-opacity: 0.95; stroke: #ffffff; stroke-opacity: 0.95; stroke-width: 0.4"/>
     <use xlink:href="#mb81516eb76" x="104.468288" y="12.990563" style="fill: #0072b2; fill-opacity: 0.95; stroke: #ffffff; stroke-opacity: 0.95; stroke-width: 0.4"/>
     <use xlink:href="#mb81516eb76" x="106.634805" y="8.07481" style="fill: #0072b2; fill-opacity: 0.95; stroke: #ffffff; stroke-opacity: 0.95; stroke-width: 0.4"/>
     <use xlink:href="#mb81516eb76" x="110.96784" y="12.694328" style="fill: #0072b2; fill-opacity: 0.95; stroke: #ffffff; stroke-opacity: 0.95; stroke-width: 0.4"/>
     <use xlink:href="#mb81516eb76" x="119.239997" y="12.557554" style="fill: #0072b2; fill-opacity: 0.95; stroke: #ffffff; stroke-opacity: 0.95; stroke-width: 0.4"/>
     <use xlink:href="#mb81516eb76" x="135.784312" y="10.694182" style="fill: #0072b2; fill-opacity: 0.95; stroke: #ffffff; stroke-opacity: 0.95; stroke-width: 0.4"/>
     <use xlink:href="#mb81516eb76" x="145.238206" y="9.760598" style="fill: #0072b2; fill-opacity: 0.95; stroke: #ffffff; stroke-opacity: 0.95; stroke-width: 0.4"/>
     <use xlink:href="#mb81516eb76" x="146.419943" y="9.621288" style="fill: #0072b2; fill-opacity: 0.95; stroke: #ffffff; stroke-opacity: 0.95; stroke-width: 0.4"/>
     <use xlink:href="#mb81516eb76" x="154.298188" y="9.487927" style="fill: #0072b2; fill-opacity: 0.95; stroke: #ffffff; stroke-opacity: 0.95; stroke-width: 0.4"/>
     <use xlink:href="#mb81516eb76" x="211.415466" y="10.564769" style="fill: #0072b2; fill-opacity: 0.95; stroke: #ffffff; stroke-opacity: 0.95; stroke-width: 0.4"/>
     <use xlink:href="#mb81516eb76" x="226.778044" y="10.901466" style="fill: #0072b2; fill-opacity: 0.95; stroke: #ffffff; stroke-opacity: 0.95; stroke-width: 0.4"/>
     <use xlink:href="#mb81516eb76" x="314.817433" y="11.178588" style="fill: #0072b2; fill-opacity: 0.95; stroke: #ffffff; stroke-opacity: 0.95; stroke-width: 0.4"/>
     <use xlink:href="#mb81516eb76" x="426.491558" y="13.680956" style="fill: #0072b2; fill-opacity: 0.95; stroke: #ffffff; stroke-opacity: 0.95; stroke-width: 0.4"/>
    </g>
   </g>
   <g id="PathCollection_2">
    <g clip-path="url(#p48b3577acd)">
     <use xlink:href="#mb81516eb76" x="104.074375" y="28.258794" style="fill: #0072b2; fill-opacity: 0.95; stroke: #ffffff; stroke-opacity: 0.95; stroke-width: 0.4"/>
     <use xlink:href="#mb81516eb76" x="133.814751" y="27.293619" style="fill: #0072b2; fill-opacity: 0.95; stroke: #ffffff; stroke-opacity: 0.95; stroke-width: 0.4"/>
     <use xlink:href="#mb81516eb76" x="195.855931" y="29.370123" style="fill: #0072b2; fill-opacity: 0.95; stroke: #ffffff; stroke-opacity: 0.95; stroke-width: 0.4"/>
     <use xlink:href="#mb81516eb76" x="211.415466" y="24.99015" style="fill: #0072b2; fill-opacity: 0.95; stroke: #ffffff; stroke-opacity: 0.95; stroke-width: 0.4"/>
    </g>
   </g>
   <g id="PathCollection_3">
    <g clip-path="url(#p48b3577acd)">
     <use xlink:href="#mb81516eb76" x="98.165692" y="40.404417" style="fill: #0072b2; fill-opacity: 0.95; stroke: #ffffff; stroke-opacity: 0.95; stroke-width: 0.4"/>
     <use xlink:href="#mb81516eb76" x="146.419943" y="42.965238" style="fill: #0072b2; fill-opacity: 0.95; stroke: #ffffff; stroke-opacity: 0.95; stroke-width: 0.4"/>
    </g>
   </g>
   <g id="PathCollection_4">
    <g clip-path="url(#p48b3577acd)">
     <use xlink:href="#mb81516eb76" x="86.939192" y="55.472356" style="fill: #0072b2; fill-opacity: 0.95; stroke: #ffffff; stroke-opacity: 0.95; stroke-width: 0.4"/>
    </g>
   </g>
   <g id="PathCollection_5">
    <defs>
     <path id="mdf079f6838" d="M 0 2.12132 
C 0.562581 2.12132 1.102195 1.897805 1.5 1.5 
C 1.897805 1.102195 2.12132 0.562581 2.12132 0 
C 2.12132 -0.562581 1.897805 -1.102195 1.5 -1.5 
C 1.102195 -1.897805 0.562581 -2.12132 0 -2.12132 
C -0.562581 -2.12132 -1.102195 -1.897805 -1.5 -1.5 
C -1.897805 -1.102195 -2.12132 -0.562581 -2.12132 0 
C -2.12132 0.562581 -1.897805 1.102195 -1.5 1.5 
C -1.102195 1.897805 -0.562581 2.12132 0 2.12132 
z
" style="stroke: #ffffff; stroke-opacity: 0.95; stroke-width: 0.4"/>
    </defs>
    <g clip-path="url(#p48b3577acd)">
     <use xlink:href="#mdf079f6838" x="86.151368" y="71.151776" style="fill: #d55e00; fill-opacity: 0.95; stroke: #ffffff; stroke-opacity: 0.95; stroke-width: 0.4"/>
     <use xlink:href="#mdf079f6838" x="88.317885" y="73.864782" style="fill: #d55e00; fill-opacity: 0.95; stroke: #ffffff; stroke-opacity: 0.95; stroke-width: 0.4"/>
     <use xlink:href="#mdf079f6838" x="97.377867" y="73.589167" style="fill: #d55e00; fill-opacity: 0.95; stroke: #ffffff; stroke-opacity: 0.95; stroke-width: 0.4"/>
     <use xlink:href="#mdf079f6838" x="100.726121" y="76.142256" style="fill: #d55e00; fill-opacity: 0.95; stroke: #ffffff; stroke-opacity: 0.95; stroke-width: 0.4"/>
     <use xlink:href="#mdf079f6838" x="100.726121" y="74.512095" style="fill: #d55e00; fill-opacity: 0.95; stroke: #ffffff; stroke-opacity: 0.95; stroke-width: 0.4"/>
     <use xlink:href="#mdf079f6838" x="157.449486" y="73.860416" style="fill: #d55e00; fill-opacity: 0.95; stroke: #ffffff; stroke-opacity: 0.95; stroke-width: 0.4"/>
     <use xlink:href="#mdf079f6838" x="161.191653" y="73.762789" style="fill: #d55e00; fill-opacity: 0.95; stroke: #ffffff; stroke-opacity: 0.95; stroke-width: 0.4"/>
     <use xlink:href="#mdf079f6838" x="188.568555" y="72.351063" style="fill: #d55e00; fill-opacity: 0.95; stroke: #ffffff; stroke-opacity: 0.95; stroke-width: 0.4"/>
     <use xlink:href="#mdf079f6838" x="207.476343" y="71.016546" style="fill: #d55e00; fill-opacity: 0.95; stroke: #ffffff; stroke-opacity: 0.95; stroke-width: 0.4"/>
     <use xlink:href="#mdf079f6838" x="293.743127" y="72.039046" style="fill: #d55e00; fill-opacity: 0.95; stroke: #ffffff; stroke-opacity: 0.95; stroke-width: 0.4"/>
    </g>
   </g>
   <g id="PathCollection_6">
    <g clip-path="url(#p48b3577acd)">
     <use xlink:href="#mdf079f6838" x="86.54528" y="90.593859" style="fill: #d55e00; fill-opacity: 0.95; stroke: #ffffff; stroke-opacity: 0.95; stroke-width: 0.4"/>
    </g>
   </g>
   <g id="PathCollection_7">
    <g clip-path="url(#p48b3577acd)">
     <use xlink:href="#mdf079f6838" x="113.922182" y="103.537883" style="fill: #d55e00; fill-opacity: 0.95; stroke: #ffffff; stroke-opacity: 0.95; stroke-width: 0.4"/>
     <use xlink:href="#mdf079f6838" x="131.84519" y="104.494265" style="fill: #d55e00; fill-opacity: 0.95; stroke: #ffffff; stroke-opacity: 0.95; stroke-width: 0.4"/>
    </g>
   </g>
   <g id="PathCollection_8">
    <g clip-path="url(#p48b3577acd)">
     <use xlink:href="#mdf079f6838" x="269.911436" y="118.149496" style="fill: #d55e00; fill-opacity: 0.95; stroke: #ffffff; stroke-opacity: 0.95; stroke-width: 0.4"/>
    </g>
   </g>
   <g id="PathCollection_9">
    <defs>
     <path id="m187bde5305" d="M 0 2.12132 
C 0.562581 2.12132 1.102195 1.897805 1.5 1.5 
C 1.897805 1.102195 2.12132 0.562581 2.12132 0 
C 2.12132 -0.562581 1.897805 -1.102195 1.5 -1.5 
C 1.102195 -1.897805 0.562581 -2.12132 0 -2.12132 
C -0.562581 -2.12132 -1.102195 -1.897805 -1.5 -1.5 
C -1.897805 -1.102195 -2.12132 -0.562581 -2.12132 0 
C -2.12132 0.562581 -1.897805 1.102195 -1.5 1.5 
C -1.102195 1.897805 -0.562581 2.12132 0 2.12132 
z
" style="stroke: #ffffff; stroke-opacity: 0.95; stroke-width: 0.4"/>
    </defs>
    <g clip-path="url(#p48b3577acd)">
     <use xlink:href="#m187bde5305" x="76.303561" y="138.553805" style="fill: #009e73; fill-opacity: 0.95; stroke: #ffffff; stroke-opacity: 0.95; stroke-width: 0.4"/>
     <use xlink:href="#m187bde5305" x="81.424421" y="134.729019" style="fill: #009e73; fill-opacity: 0.95; stroke: #ffffff; stroke-opacity: 0.95; stroke-width: 0.4"/>
     <use xlink:href="#m187bde5305" x="86.151368" y="135.369543" style="fill: #009e73; fill-opacity: 0.95; stroke: #ffffff; stroke-opacity: 0.95; stroke-width: 0.4"/>
     <use xlink:href="#m187bde5305" x="97.377867" y="138.838487" style="fill: #009e73; fill-opacity: 0.95; stroke: #ffffff; stroke-opacity: 0.95; stroke-width: 0.4"/>
     <use xlink:href="#m187bde5305" x="104.468288" y="136.740693" style="fill: #009e73; fill-opacity: 0.95; stroke: #ffffff; stroke-opacity: 0.95; stroke-width: 0.4"/>
     <use xlink:href="#m187bde5305" x="157.25253" y="138.65063" style="fill: #009e73; fill-opacity: 0.95; stroke: #ffffff; stroke-opacity: 0.95; stroke-width: 0.4"/>
    </g>
   </g>
   <g id="PathCollection_10">
    <g clip-path="url(#p48b3577acd)">
     <use xlink:href="#m187bde5305" x="92.847876" y="153.202456" style="fill: #009e73; fill-opacity: 0.95; stroke: #ffffff; stroke-opacity: 0.95; stroke-width: 0.4"/>
     <use xlink:href="#m187bde5305" x="231.701947" y="153.780226" style="fill: #009e73; fill-opacity: 0.95; stroke: #ffffff; stroke-opacity: 0.95; stroke-width: 0.4"/>
    </g>
   </g>
   <g id="PathCollection_11">
    <defs>
     <path id="m0c531820f2" d="M 0 2.12132 
C 0.562581 2.12132 1.102195 1.897805 1.5 1.5 
C 1.897805 1.102195 2.12132 0.562581 2.12132 0 
C 2.12132 -0.562581 1.897805 -1.102195 1.5 -1.5 
C 1.102195 -1.897805 0.562581 -2.12132 0 -2.12132 
C -0.562581 -2.12132 -1.102195 -1.897805 -1.5 -1.5 
C -1.897805 -1.102195 -2.12132 -0.562581 -2.12132 0 
C -2.12132 0.562581 -1.897805 1.102195 -1.5 1.5 
C -1.102195 1.897805 -0.562581 2.12132 0 2.12132 
z
" style="stroke: #ffffff; stroke-opacity: 0.95; stroke-width: 0.4"/>
    </defs>
    <g clip-path="url(#p48b3577acd)">
     <use xlink:href="#m0c531820f2" x="125.936506" y="165.824931" style="fill: #999999; fill-opacity: 0.95; stroke: #ffffff; stroke-opacity: 0.95; stroke-width: 0.4"/>
    </g>
   </g>
   <g id="legend_1">
    <g id="text_20">
     <text style="font-size: 7px; font-family: 'Arial', 'DejaVu Sans', sans-serif; text-anchor: start" x="454.321227" y="71.471839" transform="rotate(-0 454.321227 71.471839)">Pathogen type</text>
    </g>
    <g id="line2d_26">
     <defs>
      <path id="m709717b209" d="M 0 3 
C 0.795609 3 1.55874 2.683901 2.12132 2.12132 
C 2.683901 1.55874 3 0.795609 3 0 
C 3 -0.795609 2.683901 -1.55874 2.12132 -2.12132 
C 1.55874 -2.683901 0.795609 -3 0 -3 
C -0.795609 -3 -1.55874 -2.683901 -2.12132 -2.12132 
C -2.683901 -1.55874 -3 -0.795609 -3 0 
C -3 0.795609 -2.683901 1.55874 -2.12132 2.12132 
C -1.55874 2.683901 -0.795609 3 0 3 
z
" style="stroke: #ffffff"/>
     </defs>
     <g>
      <use xlink:href="#m709717b209" x="463.004508" y="79.005589" style="fill: #0072b2; stroke: #ffffff"/>
     </g>
    </g>
    <g id="text_21">
     <text style="font-size: 7px; font-family: 'Arial', 'DejaVu Sans', sans-serif; text-anchor: start" x="472.104508" y="81.455589" transform="rotate(-0 472.104508 81.455589)">Bacteria</text>
    </g>
    <g id="line2d_27">
     <defs>
      <path id="me6cdf0cc04" d="M 0 3 
C 0.795609 3 1.55874 2.683901 2.12132 2.12132 
C 2.683901 1.55874 3 0.795609 3 0 
C 3 -0.795609 2.683901 -1.55874 2.12132 -2.12132 
C 1.55874 -2.683901 0.795609 -3 0 -3 
C -0.795609 -3 -1.55874 -2.683901 -2.12132 -2.12132 
C -2.683901 -1.55874 -3 -0.795609 -3 0 
C -3 0.795609 -2.683901 1.55874 -2.12132 2.12132 
C -1.55874 2.683901 -0.795609 3 0 3 
z
" style="stroke: #ffffff"/>
     </defs>
     <g>
      <use xlink:href="#me6cdf0cc04" x="463.004508" y="88.907308" style="fill: #d55e00; stroke: #ffffff"/>
     </g>
    </g>
    <g id="text_22">
     <text style="font-size: 7px; font-family: 'Arial', 'DejaVu Sans', sans-serif; text-anchor: start" x="472.104508" y="91.357308" transform="rotate(-0 472.104508 91.357308)">Virus</text>
    </g>
    <g id="line2d_28">
     <defs>
      <path id="m24d2159024" d="M 0 3 
C 0.795609 3 1.55874 2.683901 2.12132 2.12132 
C 2.683901 1.55874 3 0.795609 3 0 
C 3 -0.795609 2.683901 -1.55874 2.12132 -2.12132 
C 1.55874 -2.683901 0.795609 -3 0 -3 
C -0.795609 -3 -1.55874 -2.683901 -2.12132 -2.12132 
C -2.683901 -1.55874 -3 -0.795609 -3 0 
C -3 0.795609 -2.683901 1.55874 -2.12132 2.12132 
C -1.55874 2.683901 -0.795609 3 0 3 
z
" style="stroke: #ffffff"/>
     </defs>
     <g>
      <use xlink:href="#m24d2159024" x="463.004508" y="98.809027" style="fill: #009e73; stroke: #ffffff"/>
     </g>
    </g>
    <g id="text_23">
     <text style="font-size: 7px; font-family: 'Arial', 'DejaVu Sans', sans-serif; text-anchor: start" x="472.104508" y="101.259027" transform="rotate(-0 472.104508 101.259027)">Parasite</text>
    </g>
    <g id="line2d_29">
     <defs>
      <path id="mc06e536c2a" d="M 0 3 
C 0.795609 3 1.55874 2.683901 2.12132 2.12132 
C 2.683901 1.55874 3 0.795609 3 0 
C 3 -0.795609 2.683901 -1.55874 2.12132 -2.12132 
C 1.55874 -2.683901 0.795609 -3 0 -3 
C -0.795609 -3 -1.55874 -2.683901 -2.12132 -2.12132 
C -2.683901 -1.55874 -3 -0.795609 -3 0 
C -3 0.795609 -2.683901 1.55874 -2.12132 2.12132 
C -1.55874 2.683901 -0.795609 3 0 3 
z
" style="stroke: #ffffff"/>
     </defs>
     <g>
      <use xlink:href="#mc06e536c2a" x="463.004508" y="108.710746" style="fill: #999999; stroke: #ffffff"/>
     </g>
    </g>
    <g id="text_24">
     <text style="font-size: 7px; font-family: 'Arial', 'DejaVu Sans', sans-serif; text-anchor: start" x="472.104508" y="111.160746" transform="rotate(-0 472.104508 111.160746)">Other</text>
    </g>
   </g>
  </g>
 </g>
 <defs>
  <clipPath id="p48b3577acd">
   <rect x="55.898906" y="1.44" width="388.239921" height="176.133366"/>
  </clipPath>
 </defs>
</svg>
